<svg width="48" height="48" viewBox="0 0 48 48" fill="none" xmlns="http://www.w3.org/2000/svg">
  <g>
    <path d="M24 8C32.8366 8 40 15.1634 40 24C40 32.8366 32.8366 40 24 40C15.1634 40 8 32.8366 8 24C8 15.1634 15.1634 8 24 8Z" fill="#4299E1"/>
    <path d="M24 12C30.6274 12 36 17.3726 36 24C36 30.6274 30.6274 36 24 36C17.3726 36 12 30.6274 12 24C12 17.3726 17.3726 12 24 12Z" fill="#63B3ED"/>
    <path d="M24 16C28.4183 16 32 19.5817 32 24C32 28.4183 28.4183 32 24 32C19.5817 32 16 28.4183 16 24C16 19.5817 19.5817 16 24 16Z" fill="#90CDF4"/>
  </g>
  <path d="M32 32L40 40" stroke="#2B6CB0" stroke-width="4" stroke-linecap="round"/>
</svg> 